<mxfile host="app.diagrams.net" agent="Mozilla/5.0 (Windows NT 10.0; Win64; x64) AppleWebKit/537.36 (KHTML, like Gecko) Chrome/139.0.0.0 Safari/537.36" version="27.1.6">
  <diagram name="Page-1" id="W3lmRoRbn8dZXl3_B7Kk">
    <mxGraphModel dx="1820" dy="1236" grid="1" gridSize="10" guides="1" tooltips="1" connect="1" arrows="1" fold="1" page="1" pageScale="1" pageWidth="850" pageHeight="1100" math="0" shadow="0">
      <root>
        <mxCell id="0" />
        <mxCell id="1" parent="0" />
        <mxCell id="TjDOICraMSyyVU4xpsfF-25" value="" style="shape=flexArrow;endArrow=classic;html=1;rounded=0;entryX=0.024;entryY=0.137;entryDx=0;entryDy=0;entryPerimeter=0;" edge="1" parent="1" target="TjDOICraMSyyVU4xpsfF-8">
          <mxGeometry width="50" height="50" relative="1" as="geometry">
            <mxPoint x="270" y="287" as="sourcePoint" />
            <mxPoint x="270" y="260" as="targetPoint" />
          </mxGeometry>
        </mxCell>
        <mxCell id="TjDOICraMSyyVU4xpsfF-28" value="" style="shape=flexArrow;endArrow=classic;html=1;rounded=0;entryX=0.033;entryY=0.225;entryDx=0;entryDy=0;entryPerimeter=0;" edge="1" parent="1">
          <mxGeometry width="50" height="50" relative="1" as="geometry">
            <mxPoint x="1070" y="290" as="sourcePoint" />
            <mxPoint x="1194" y="290" as="targetPoint" />
          </mxGeometry>
        </mxCell>
        <mxCell id="TjDOICraMSyyVU4xpsfF-32" value="" style="group" vertex="1" connectable="0" parent="1">
          <mxGeometry x="80" y="130" width="180" height="540" as="geometry" />
        </mxCell>
        <mxCell id="TjDOICraMSyyVU4xpsfF-1" value="" style="rounded=0;whiteSpace=wrap;html=1;fillColor=none;strokeColor=light-dark(#000000,#FF0000);" vertex="1" parent="TjDOICraMSyyVU4xpsfF-32">
          <mxGeometry y="25.714285714285715" width="180" height="514.2857142857143" as="geometry" />
        </mxCell>
        <mxCell id="TjDOICraMSyyVU4xpsfF-2" value="&lt;font style=&quot;font-size: 21px;&quot;&gt;Sources&lt;/font&gt;" style="rounded=0;whiteSpace=wrap;html=1;strokeColor=none;" vertex="1" parent="TjDOICraMSyyVU4xpsfF-32">
          <mxGeometry x="10.384615384615385" width="159.23076923076923" height="38.57142857142857" as="geometry" />
        </mxCell>
        <mxCell id="TjDOICraMSyyVU4xpsfF-16" value="CRM" style="image;html=1;image=img/lib/clip_art/general/Full_Folder_128x128.png" vertex="1" parent="TjDOICraMSyyVU4xpsfF-32">
          <mxGeometry x="38.07692307692307" y="90" width="103.84615384615384" height="77.14285714285714" as="geometry" />
        </mxCell>
        <mxCell id="TjDOICraMSyyVU4xpsfF-17" value="ERP" style="image;aspect=fixed;perimeter=ellipsePerimeter;html=1;align=center;shadow=0;dashed=0;spacingTop=3;image=img/lib/active_directory/folder_open.svg;" vertex="1" parent="TjDOICraMSyyVU4xpsfF-32">
          <mxGeometry x="42.646153846153844" y="237.85714285714286" width="72.06666666666668" height="78.33333333333333" as="geometry" />
        </mxCell>
        <mxCell id="TjDOICraMSyyVU4xpsfF-19" value="" style="endArrow=none;html=1;rounded=0;strokeColor=light-dark(#000000,#E6E6E6);" edge="1" parent="TjDOICraMSyyVU4xpsfF-32">
          <mxGeometry width="50" height="50" relative="1" as="geometry">
            <mxPoint x="18" y="398.5714285714286" as="sourcePoint" />
            <mxPoint x="156.46153846153845" y="398.5714285714286" as="targetPoint" />
          </mxGeometry>
        </mxCell>
        <mxCell id="TjDOICraMSyyVU4xpsfF-20" value="&lt;font style=&quot;font-size: 14px;&quot;&gt;&lt;b style=&quot;&quot;&gt;Object Type&lt;/b&gt;: CSV Files&lt;/font&gt;&lt;div&gt;&lt;font style=&quot;font-size: 14px;&quot;&gt;&lt;br&gt;&lt;/font&gt;&lt;/div&gt;&lt;div&gt;&lt;font style=&quot;font-size: 14px;&quot;&gt;&lt;b style=&quot;&quot;&gt;Interfaces&lt;/b&gt;: Files in Folder&lt;/font&gt;&lt;/div&gt;" style="text;html=1;align=center;verticalAlign=middle;whiteSpace=wrap;rounded=0;" vertex="1" parent="TjDOICraMSyyVU4xpsfF-32">
          <mxGeometry x="13.846153846153847" y="411.42857142857144" width="152.3076923076923" height="102.85714285714286" as="geometry" />
        </mxCell>
        <mxCell id="TjDOICraMSyyVU4xpsfF-33" value="" style="group" vertex="1" connectable="0" parent="1">
          <mxGeometry x="340" y="130" width="780" height="540" as="geometry" />
        </mxCell>
        <mxCell id="TjDOICraMSyyVU4xpsfF-3" value="" style="rounded=0;whiteSpace=wrap;html=1;fillColor=none;strokeColor=light-dark(#000000,#66FF66);" vertex="1" parent="TjDOICraMSyyVU4xpsfF-33">
          <mxGeometry y="25.714285714285715" width="780" height="514.2857142857143" as="geometry" />
        </mxCell>
        <mxCell id="TjDOICraMSyyVU4xpsfF-6" value="&lt;font style=&quot;font-size: 21px;&quot;&gt;Data Warehouse&lt;/font&gt;" style="rounded=0;whiteSpace=wrap;html=1;strokeColor=none;" vertex="1" parent="TjDOICraMSyyVU4xpsfF-33">
          <mxGeometry x="270.61224489795916" width="270.61224489795916" height="38.57142857142857" as="geometry" />
        </mxCell>
        <mxCell id="TjDOICraMSyyVU4xpsfF-9" value="" style="group" vertex="1" connectable="0" parent="TjDOICraMSyyVU4xpsfF-33">
          <mxGeometry x="47.75510204081632" y="64.28571428571429" width="175.1020408163265" height="437.14285714285717" as="geometry" />
        </mxCell>
        <mxCell id="TjDOICraMSyyVU4xpsfF-7" value="&lt;font style=&quot;font-size: 16px;&quot;&gt;&lt;b&gt;Bronze Layer&lt;/b&gt;&lt;/font&gt;" style="rounded=0;whiteSpace=wrap;html=1;fillColor=#f0a30a;fontColor=#000000;strokeColor=#BD7000;" vertex="1" parent="TjDOICraMSyyVU4xpsfF-9">
          <mxGeometry width="175.1020408163265" height="25.714285714285715" as="geometry" />
        </mxCell>
        <mxCell id="TjDOICraMSyyVU4xpsfF-8" value="" style="rounded=0;whiteSpace=wrap;html=1;fillColor=none;fontColor=#000000;strokeColor=#BD7000;" vertex="1" parent="TjDOICraMSyyVU4xpsfF-9">
          <mxGeometry y="38.57142857142857" width="175.1020408163265" height="398.5714285714286" as="geometry" />
        </mxCell>
        <mxCell id="TjDOICraMSyyVU4xpsfF-21" value="" style="html=1;verticalLabelPosition=bottom;align=center;labelBackgroundColor=#ffffff;verticalAlign=top;strokeWidth=2;strokeColor=#BD7000;shadow=0;dashed=0;shape=mxgraph.ios7.icons.data;fillColor=#f0a30a;fontColor=#000000;" vertex="1" parent="TjDOICraMSyyVU4xpsfF-9">
          <mxGeometry x="47.90285714285714" y="65.71000000000001" width="74.81632653061224" height="70.71428571428572" as="geometry" />
        </mxCell>
        <mxCell id="TjDOICraMSyyVU4xpsfF-29" value="&lt;font style=&quot;font-size: 14px;&quot;&gt;&lt;b style=&quot;&quot;&gt;Object Type&lt;/b&gt;: Tables&lt;/font&gt;&lt;div&gt;&lt;div&gt;&lt;font style=&quot;font-size: 14px;&quot;&gt;&lt;b style=&quot;&quot;&gt;&lt;br&gt;&lt;/b&gt;&lt;/font&gt;&lt;/div&gt;&lt;div&gt;&lt;font style=&quot;font-size: 14px;&quot;&gt;&lt;b style=&quot;&quot;&gt;&amp;nbsp;Load:&amp;nbsp;&lt;/b&gt;&lt;/font&gt;&lt;/div&gt;&lt;div&gt;&lt;font style=&quot;font-size: 14px;&quot;&gt;&lt;b style=&quot;&quot;&gt;- &lt;/b&gt;Batch&lt;b style=&quot;&quot;&gt;&amp;nbsp;&lt;/b&gt;Processing&lt;/font&gt;&lt;/div&gt;&lt;div&gt;&lt;span style=&quot;font-size: 14px; background-color: transparent; color: light-dark(rgb(0, 0, 0), rgb(255, 255, 255));&quot;&gt;- Full Load&lt;/span&gt;&lt;/div&gt;&lt;div&gt;&lt;font style=&quot;font-size: 14px;&quot;&gt;&amp;nbsp; &amp;nbsp; &amp;nbsp; &amp;nbsp; &amp;nbsp;- Truncates &amp;amp;&amp;nbsp; &amp;nbsp; &amp;nbsp; &amp;nbsp; &amp;nbsp; &amp;nbsp; &amp;nbsp;Insert&lt;/font&gt;&lt;/div&gt;&lt;div&gt;&lt;b&gt;&lt;font style=&quot;font-size: 14px;&quot;&gt;&lt;br&gt;&lt;/font&gt;&lt;/b&gt;&lt;/div&gt;&lt;div&gt;&lt;font style=&quot;font-size: 14px;&quot;&gt;&lt;b&gt;&amp;nbsp; &amp;nbsp; &amp;nbsp; Transformations:&amp;nbsp; &amp;nbsp; &amp;nbsp; &amp;nbsp; &amp;nbsp;&lt;/b&gt;None&lt;/font&gt;&lt;/div&gt;&lt;div&gt;&lt;font style=&quot;font-size: 14px;&quot;&gt;&lt;br&gt;&lt;/font&gt;&lt;/div&gt;&lt;div&gt;&lt;font style=&quot;font-size: 14px;&quot;&gt;&lt;b style=&quot;&quot;&gt;Data Model:&amp;nbsp;&lt;/b&gt;&lt;/font&gt;&lt;/div&gt;&lt;div&gt;&lt;font style=&quot;font-size: 14px;&quot;&gt;&amp;nbsp;None&amp;nbsp; (As-is)&lt;/font&gt;&lt;/div&gt;&lt;/div&gt;" style="text;html=1;align=center;verticalAlign=middle;whiteSpace=wrap;rounded=0;" vertex="1" parent="TjDOICraMSyyVU4xpsfF-9">
          <mxGeometry y="172.34042553191492" width="170.625" height="252.76595744680853" as="geometry" />
        </mxCell>
        <mxCell id="TjDOICraMSyyVU4xpsfF-35" value="" style="endArrow=none;html=1;rounded=0;strokeColor=light-dark(#000000,#E6E6E6);exitX=0.02;exitY=0.328;exitDx=0;exitDy=0;exitPerimeter=0;" edge="1" parent="TjDOICraMSyyVU4xpsfF-9" source="TjDOICraMSyyVU4xpsfF-8">
          <mxGeometry width="50" height="50" relative="1" as="geometry">
            <mxPoint x="0.0048979591836655345" y="175.71428571428572" as="sourcePoint" />
            <mxPoint x="162.24489795918367" y="169.71428571428572" as="targetPoint" />
          </mxGeometry>
        </mxCell>
        <mxCell id="TjDOICraMSyyVU4xpsfF-10" value="" style="group" vertex="1" connectable="0" parent="TjDOICraMSyyVU4xpsfF-33">
          <mxGeometry x="302.44897959183675" y="64.28571428571429" width="175.1020408163265" height="437.14285714285717" as="geometry" />
        </mxCell>
        <mxCell id="TjDOICraMSyyVU4xpsfF-11" value="&lt;font style=&quot;font-size: 16px;&quot;&gt;&lt;b&gt;Silver Layer&lt;/b&gt;&lt;/font&gt;" style="rounded=0;whiteSpace=wrap;html=1;fillColor=#647687;fontColor=#ffffff;strokeColor=#314354;" vertex="1" parent="TjDOICraMSyyVU4xpsfF-10">
          <mxGeometry width="175.1020408163265" height="25.714285714285715" as="geometry" />
        </mxCell>
        <mxCell id="TjDOICraMSyyVU4xpsfF-12" value="" style="rounded=0;whiteSpace=wrap;html=1;fillColor=none;fontColor=#000000;strokeColor=light-dark(#BD7000,#D4E1F5);" vertex="1" parent="TjDOICraMSyyVU4xpsfF-10">
          <mxGeometry y="38.57142857142857" width="175.1020408163265" height="398.5714285714286" as="geometry" />
        </mxCell>
        <mxCell id="TjDOICraMSyyVU4xpsfF-23" value="" style="html=1;verticalLabelPosition=bottom;align=center;labelBackgroundColor=#ffffff;verticalAlign=top;strokeWidth=2;strokeColor=#314354;shadow=0;dashed=0;shape=mxgraph.ios7.icons.data;fillColor=#647687;fontColor=#ffffff;" vertex="1" parent="TjDOICraMSyyVU4xpsfF-10">
          <mxGeometry x="50.14285714285714" y="65.71000000000001" width="74.81632653061224" height="70.71428571428572" as="geometry" />
        </mxCell>
        <mxCell id="TjDOICraMSyyVU4xpsfF-30" value="&lt;font style=&quot;font-size: 14px;&quot;&gt;&lt;b style=&quot;&quot;&gt;Object Type&lt;/b&gt;: Tables&lt;/font&gt;&lt;div&gt;&lt;font style=&quot;font-size: 14px;&quot;&gt;&lt;br&gt;&lt;/font&gt;&lt;/div&gt;&lt;div&gt;&lt;span style=&quot;font-size: 14px;&quot;&gt;&lt;b&gt;Load:&lt;/b&gt;&lt;/span&gt;&lt;/div&gt;&lt;div&gt;&lt;span style=&quot;font-size: 14px;&quot;&gt;&lt;b&gt;- &lt;/b&gt;Batch Processing&lt;/span&gt;&lt;/div&gt;&lt;div&gt;&lt;span style=&quot;font-size: 14px;&quot;&gt;- Full Load&lt;/span&gt;&lt;/div&gt;&lt;div&gt;&lt;span style=&quot;font-size: 14px;&quot;&gt;&lt;b&gt;- &lt;/b&gt;Truncate &amp;amp; Insert&lt;/span&gt;&lt;/div&gt;&lt;div&gt;&lt;span style=&quot;font-size: 14px;&quot;&gt;&lt;br&gt;&lt;/span&gt;&lt;/div&gt;&lt;div&gt;&lt;span style=&quot;font-size: 14px;&quot;&gt;&lt;b&gt;Transformations:&lt;/b&gt;&lt;/span&gt;&lt;/div&gt;&lt;div&gt;&lt;span style=&quot;font-size: 14px;&quot;&gt;- Data Cleaning&lt;/span&gt;&lt;/div&gt;&lt;div&gt;&lt;span style=&quot;font-size: 14px;&quot;&gt;- Data Standardization&lt;/span&gt;&lt;/div&gt;&lt;div&gt;&lt;span style=&quot;font-size: 14px;&quot;&gt;- Data Normalization&lt;/span&gt;&lt;/div&gt;&lt;div&gt;&lt;span style=&quot;font-size: 14px;&quot;&gt;- Derived Columns&lt;/span&gt;&lt;/div&gt;&lt;div&gt;&lt;span style=&quot;font-size: 14px;&quot;&gt;- Data Environment&lt;/span&gt;&lt;/div&gt;&lt;div&gt;&lt;span style=&quot;font-size: 14px;&quot;&gt;&lt;br&gt;&lt;/span&gt;&lt;/div&gt;&lt;div&gt;&lt;span style=&quot;font-size: 14px;&quot;&gt;&lt;b&gt;Data Model: &lt;/b&gt;None (As-is)&lt;/span&gt;&lt;/div&gt;" style="text;html=1;align=center;verticalAlign=middle;whiteSpace=wrap;rounded=0;" vertex="1" parent="TjDOICraMSyyVU4xpsfF-10">
          <mxGeometry y="170" width="175.1" height="260" as="geometry" />
        </mxCell>
        <mxCell id="TjDOICraMSyyVU4xpsfF-36" value="" style="endArrow=none;html=1;rounded=0;strokeColor=light-dark(#000000,#E6E6E6);exitX=0.02;exitY=0.328;exitDx=0;exitDy=0;exitPerimeter=0;" edge="1" parent="TjDOICraMSyyVU4xpsfF-10">
          <mxGeometry width="50" height="50" relative="1" as="geometry">
            <mxPoint x="8.43102040816325" y="169.00428571428574" as="sourcePoint" />
            <mxPoint x="166.67591836734687" y="169.71857142857147" as="targetPoint" />
          </mxGeometry>
        </mxCell>
        <mxCell id="TjDOICraMSyyVU4xpsfF-13" value="" style="group" vertex="1" connectable="0" parent="TjDOICraMSyyVU4xpsfF-33">
          <mxGeometry x="541.2244897959183" y="64.28571428571429" width="175.1020408163265" height="437.14285714285717" as="geometry" />
        </mxCell>
        <mxCell id="TjDOICraMSyyVU4xpsfF-14" value="&lt;font style=&quot;font-size: 16px;&quot;&gt;&lt;b&gt;Gold Layer&lt;/b&gt;&lt;/font&gt;" style="rounded=0;whiteSpace=wrap;html=1;fillColor=light-dark(#FFCD28,#CCCC00);strokeColor=#d79b00;gradientColor=#ffa500;" vertex="1" parent="TjDOICraMSyyVU4xpsfF-13">
          <mxGeometry width="175.1020408163265" height="25.714285714285715" as="geometry" />
        </mxCell>
        <mxCell id="TjDOICraMSyyVU4xpsfF-15" value="" style="rounded=0;whiteSpace=wrap;html=1;fillColor=none;fontColor=#000000;strokeColor=light-dark(#BD7000,#FFFF00);" vertex="1" parent="TjDOICraMSyyVU4xpsfF-13">
          <mxGeometry y="38.57142857142857" width="175.1020408163265" height="398.5714285714286" as="geometry" />
        </mxCell>
        <mxCell id="TjDOICraMSyyVU4xpsfF-22" value="" style="html=1;verticalLabelPosition=bottom;align=center;labelBackgroundColor=#ffffff;verticalAlign=top;strokeWidth=2;strokeColor=#B09500;shadow=0;dashed=0;shape=mxgraph.ios7.icons.data;fillColor=#e3c800;fontColor=#000000;" vertex="1" parent="TjDOICraMSyyVU4xpsfF-13">
          <mxGeometry x="58.77285714285714" y="65.71000000000001" width="74.81632653061224" height="70.71428571428572" as="geometry" />
        </mxCell>
        <mxCell id="TjDOICraMSyyVU4xpsfF-31" value="&lt;font style=&quot;font-size: 14px;&quot;&gt;&lt;b style=&quot;&quot;&gt;Object Type&lt;/b&gt;: Views&lt;/font&gt;&lt;div&gt;&lt;font style=&quot;font-size: 14px;&quot;&gt;&lt;br&gt;&lt;/font&gt;&lt;/div&gt;&lt;div&gt;&lt;span style=&quot;font-size: 14px;&quot;&gt;&lt;b&gt;Load: &lt;/b&gt;None&lt;/span&gt;&lt;/div&gt;&lt;div&gt;&lt;br&gt;&lt;/div&gt;&lt;div&gt;&lt;font style=&quot;font-size: 14px;&quot;&gt;&lt;b&gt;Transformations:&amp;nbsp;&lt;/b&gt;&lt;/font&gt;&lt;/div&gt;&lt;div&gt;&lt;font style=&quot;font-size: 14px;&quot;&gt;- Data Integration&lt;/font&gt;&lt;/div&gt;&lt;div&gt;&lt;font style=&quot;font-size: 14px;&quot;&gt;- Aggregation&lt;/font&gt;&lt;/div&gt;&lt;div&gt;&lt;font style=&quot;font-size: 14px;&quot;&gt;- Business Logic&lt;/font&gt;&lt;/div&gt;&lt;div&gt;&lt;b&gt;&lt;font style=&quot;font-size: 14px;&quot;&gt;&lt;br&gt;&lt;/font&gt;&lt;/b&gt;&lt;/div&gt;&lt;div&gt;&lt;font style=&quot;font-size: 14px;&quot;&gt;&lt;b&gt;Data Model: &lt;/b&gt;- Star Schema&lt;/font&gt;&lt;/div&gt;&lt;div&gt;&lt;font style=&quot;font-size: 14px;&quot;&gt;- Flat Table&lt;/font&gt;&lt;/div&gt;&lt;div&gt;&lt;font style=&quot;font-size: 14px;&quot;&gt;- Aggregated Table&lt;/font&gt;&lt;/div&gt;" style="text;html=1;align=center;verticalAlign=middle;whiteSpace=wrap;rounded=0;" vertex="1" parent="TjDOICraMSyyVU4xpsfF-13">
          <mxGeometry y="170" width="170" height="260" as="geometry" />
        </mxCell>
        <mxCell id="TjDOICraMSyyVU4xpsfF-37" value="" style="endArrow=none;html=1;rounded=0;strokeColor=light-dark(#000000,#E6E6E6);exitX=0.02;exitY=0.328;exitDx=0;exitDy=0;exitPerimeter=0;" edge="1" parent="TjDOICraMSyyVU4xpsfF-13">
          <mxGeometry width="50" height="50" relative="1" as="geometry">
            <mxPoint x="11.755510204081725" y="169.00428571428571" as="sourcePoint" />
            <mxPoint x="170.00040816326523" y="169.71857142857144" as="targetPoint" />
          </mxGeometry>
        </mxCell>
        <mxCell id="TjDOICraMSyyVU4xpsfF-39" value="" style="shape=flexArrow;endArrow=classic;html=1;rounded=0;entryX=0.033;entryY=0.225;entryDx=0;entryDy=0;entryPerimeter=0;" edge="1" parent="TjDOICraMSyyVU4xpsfF-13">
          <mxGeometry width="50" height="50" relative="1" as="geometry">
            <mxPoint x="-81.22448979591832" y="100.56428571428575" as="sourcePoint" />
            <mxPoint x="42.775510204081684" y="100.56428571428575" as="targetPoint" />
          </mxGeometry>
        </mxCell>
        <mxCell id="TjDOICraMSyyVU4xpsfF-26" value="" style="shape=flexArrow;endArrow=classic;html=1;rounded=0;" edge="1" parent="TjDOICraMSyyVU4xpsfF-33">
          <mxGeometry width="50" height="50" relative="1" as="geometry">
            <mxPoint x="183.06122448979593" y="160" as="sourcePoint" />
            <mxPoint x="334.2857142857143" y="160" as="targetPoint" />
          </mxGeometry>
        </mxCell>
        <mxCell id="TjDOICraMSyyVU4xpsfF-43" value="" style="group" vertex="1" connectable="0" parent="1">
          <mxGeometry x="1210" y="140" width="180" height="530" as="geometry" />
        </mxCell>
        <mxCell id="TjDOICraMSyyVU4xpsfF-4" value="" style="rounded=0;whiteSpace=wrap;html=1;fillColor=none;strokeColor=light-dark(#000000,#00CCCC);" vertex="1" parent="TjDOICraMSyyVU4xpsfF-43">
          <mxGeometry y="20" width="180" height="510" as="geometry" />
        </mxCell>
        <mxCell id="TjDOICraMSyyVU4xpsfF-5" value="&lt;font style=&quot;font-size: 21px;&quot;&gt;Consume&lt;/font&gt;" style="rounded=0;whiteSpace=wrap;html=1;strokeColor=none;" vertex="1" parent="TjDOICraMSyyVU4xpsfF-43">
          <mxGeometry x="30" width="115" height="30" as="geometry" />
        </mxCell>
        <mxCell id="TjDOICraMSyyVU4xpsfF-40" value="&lt;font style=&quot;font-size: 14px;&quot;&gt;BI &amp;amp; Reporting&lt;/font&gt;" style="image;aspect=fixed;html=1;points=[];align=center;fontSize=12;image=img/lib/azure2/analytics/Power_BI_Embedded.svg;" vertex="1" parent="TjDOICraMSyyVU4xpsfF-43">
          <mxGeometry x="62" y="100" width="51" height="68" as="geometry" />
        </mxCell>
        <mxCell id="TjDOICraMSyyVU4xpsfF-41" value="&lt;font style=&quot;color: light-dark(rgb(0, 0, 0), rgb(245, 245, 245)); font-size: 16px;&quot;&gt;Ad-Hoc SQL Query&lt;/font&gt;" style="points=[];aspect=fixed;html=1;align=center;shadow=0;dashed=0;fillColor=#FF6A00;strokeColor=none;shape=mxgraph.alibaba_cloud.assettech;" vertex="1" parent="TjDOICraMSyyVU4xpsfF-43">
          <mxGeometry x="49.8599999999999" y="250" width="80.29" height="77.5" as="geometry" />
        </mxCell>
        <mxCell id="TjDOICraMSyyVU4xpsfF-42" value="&lt;font style=&quot;font-size: 15px;&quot;&gt;Machine Learning&lt;/font&gt;" style="image;aspect=fixed;html=1;points=[];align=center;fontSize=12;image=img/lib/azure2/ai_machine_learning/Cognitive_Services.svg;" vertex="1" parent="TjDOICraMSyyVU4xpsfF-43">
          <mxGeometry x="49.8599999999999" y="380" width="93" height="65.65" as="geometry" />
        </mxCell>
      </root>
    </mxGraphModel>
  </diagram>
</mxfile>
